<mxfile host="app.diagrams.net" agent="Mozilla/5.0 (Windows NT 10.0; Win64; x64) AppleWebKit/537.36 (KHTML, like Gecko) Chrome/128.0.0.0 Safari/537.36" version="24.7.12">
  <diagram name="Page-1" id="TlXPfBBaqNFi0Y2tFJta">
    <mxGraphModel dx="1434" dy="746" grid="1" gridSize="10" guides="1" tooltips="1" connect="1" arrows="1" fold="1" page="1" pageScale="1" pageWidth="827" pageHeight="1169" math="0" shadow="0">
      <root>
        <mxCell id="0" />
        <mxCell id="1" parent="0" />
        <mxCell id="U9wwr09bBJfaxteULspo-6" value="Macchina locale Windows" style="shape=mxgraph.ibm.box;prType=zone;fontStyle=0;verticalAlign=top;align=left;spacingLeft=32;spacingTop=4;fillColor=none;rounded=0;whiteSpace=wrap;html=1;strokeColor=#919191;strokeWidth=1;dashed=0;container=1;spacing=-4;collapsible=0;expand=0;recursiveResize=0;" vertex="1" parent="1">
          <mxGeometry x="180" y="290" width="610" height="500" as="geometry" />
        </mxCell>
        <mxCell id="U9wwr09bBJfaxteULspo-7" value="Virtual Box" style="fontStyle=0;verticalAlign=top;align=center;spacingTop=-2;fillColor=none;rounded=0;whiteSpace=wrap;html=1;strokeColor=#FF0000;strokeWidth=2;dashed=1;container=1;collapsible=0;expand=0;recursiveResize=0;" vertex="1" parent="1">
          <mxGeometry x="220" y="360" width="560" height="420" as="geometry" />
        </mxCell>
        <mxCell id="U9wwr09bBJfaxteULspo-9" value="VM Ubuntu 24.04 LTS" style="fontStyle=0;verticalAlign=top;align=center;spacingTop=-2;fillColor=#f8cecc;rounded=0;whiteSpace=wrap;html=1;strokeColor=#b85450;strokeWidth=1;dashed=0;container=1;collapsible=0;expand=0;recursiveResize=0;sketch=1;curveFitting=1;jiggle=2;" vertex="1" parent="1">
          <mxGeometry x="260" y="390" width="510" height="380" as="geometry" />
        </mxCell>
        <mxCell id="U9wwr09bBJfaxteULspo-11" value="" style="sketch=0;pointerEvents=1;shadow=0;dashed=0;html=1;aspect=fixed;labelPosition=center;verticalLabelPosition=bottom;verticalAlign=top;align=center;outlineConnect=0;shape=mxgraph.vvd.virtual_machine;fillColor=#fa6800;fontColor=#000000;strokeColor=#C73500;" vertex="1" parent="U9wwr09bBJfaxteULspo-9">
          <mxGeometry width="30" height="30" as="geometry" />
        </mxCell>
        <mxCell id="U9wwr09bBJfaxteULspo-12" value="Multipass" style="fontStyle=0;verticalAlign=top;align=center;spacingTop=-2;fillColor=#cdeb8b;rounded=0;whiteSpace=wrap;html=1;strokeColor=#36393d;strokeWidth=2;dashed=1;container=1;collapsible=0;expand=0;recursiveResize=0;" vertex="1" parent="1">
          <mxGeometry x="300" y="430" width="460" height="330" as="geometry" />
        </mxCell>
        <mxCell id="U9wwr09bBJfaxteULspo-13" value="Kubernetes cluster" style="shape=mxgraph.ibm.box;prType=public;fontStyle=0;verticalAlign=top;align=left;spacingLeft=32;spacingTop=4;fillColor=none;rounded=0;whiteSpace=wrap;html=1;strokeColor=#4376BB;strokeWidth=3;dashed=0;container=1;spacing=-4;collapsible=0;expand=0;recursiveResize=0;" vertex="1" parent="1">
          <mxGeometry x="320" y="480" width="430" height="270" as="geometry" />
        </mxCell>
        <mxCell id="U9wwr09bBJfaxteULspo-15" value="Nodo Master" style="fontStyle=0;verticalAlign=top;align=center;spacingTop=-2;fillColor=none;rounded=0;whiteSpace=wrap;html=1;strokeColor=#919191;strokeWidth=2;dashed=1;container=1;collapsible=0;expand=0;recursiveResize=0;" vertex="1" parent="U9wwr09bBJfaxteULspo-13">
          <mxGeometry x="29" y="100" width="171" height="150" as="geometry" />
        </mxCell>
        <mxCell id="U9wwr09bBJfaxteULspo-16" value="Nodo Worker" style="fontStyle=0;verticalAlign=top;align=center;spacingTop=-2;fillColor=none;rounded=0;whiteSpace=wrap;html=1;strokeColor=#919191;strokeWidth=2;dashed=1;container=1;collapsible=0;expand=0;recursiveResize=0;" vertex="1" parent="U9wwr09bBJfaxteULspo-13">
          <mxGeometry x="230" y="100" width="180" height="155" as="geometry" />
        </mxCell>
        <mxCell id="U9wwr09bBJfaxteULspo-17" value="Azure VM" style="shape=mxgraph.ibm.box;prType=cloud;fontStyle=0;verticalAlign=top;align=left;spacingLeft=32;spacingTop=4;fillColor=none;rounded=0;whiteSpace=wrap;html=1;strokeColor=#4376BB;strokeWidth=3;dashed=0;container=1;spacing=-4;collapsible=0;expand=0;recursiveResize=0;" vertex="1" parent="1">
          <mxGeometry x="20" y="505" width="130" height="160" as="geometry" />
        </mxCell>
        <mxCell id="U9wwr09bBJfaxteULspo-18" value="&lt;b&gt;NFS Storage&lt;/b&gt;" style="rounded=1;whiteSpace=wrap;html=1;strokeWidth=2;fillWeight=4;hachureGap=8;hachureAngle=45;fillColor=#cce5ff;sketch=1;strokeColor=#36393d;perimeterSpacing=0;opacity=30;glass=0;shadow=0;" vertex="1" parent="U9wwr09bBJfaxteULspo-17">
          <mxGeometry x="20" y="80" width="80" height="40" as="geometry" />
        </mxCell>
      </root>
    </mxGraphModel>
  </diagram>
</mxfile>
